HIERARCHY
ROOT Hips
{
	OFFSET 0.00 0.00 0.00
	CHANNELS 6 Xposition Yposition Zposition Xrotation Yrotation Zrotation
	JOINT Spine
	{
		OFFSET 0.00000 0.84964 1.27446
		CHANNELS 3 Xrotation Yrotation Zrotation
		JOINT Spine1
		{
			OFFSET 0.00000 0.29508 1.67346
			CHANNELS 3 Xrotation Yrotation Zrotation
			JOINT Spine2
			{
				OFFSET 0.00000 0.14810 1.69281
				CHANNELS 3 Xrotation Yrotation Zrotation
				JOINT Spine3
				{
					OFFSET 0.00000 0.00000 1.69928
					CHANNELS 3 Xrotation Yrotation Zrotation
					JOINT Neck
					{
						OFFSET 0.00000 -0.63723 4.46061
						CHANNELS 3 Xrotation Yrotation Zrotation
						JOINT Head
						{
							OFFSET 0.00000 -0.40573 2.30101
							CHANNELS 3 Xrotation Yrotation Zrotation
							End Site
							{
								OFFSET 0.00000 0.00000 2.75071
							}
						}
					}
					JOINT RightShoulder
					{
						OFFSET -0.72014 -1.20022 3.88874
						CHANNELS 3 Xrotation Yrotation Zrotation
						JOINT RightArm
						{
							OFFSET -3.57668 0.00000 0.00000
							CHANNELS 3 Xrotation Yrotation Zrotation
							JOINT RightForeArm
							{
								OFFSET -5.92485 0.00000 0.00000
								CHANNELS 3 Xrotation Yrotation Zrotation
								JOINT RightHand
								{
									OFFSET -6.63013 0.00000 0.00000
									CHANNELS 3 Xrotation Yrotation Zrotation
									JOINT RightHandEnd
									{
										OFFSET -1.65321 0.00000 0.00000
										CHANNELS 3 Xrotation Yrotation Zrotation
										End Site
										{
											OFFSET -1.65321 0.00000 0.00000
										}
									}
									JOINT RightHandThumb1
									{
										OFFSET -0.66129 -1.10214 -0.44086
										CHANNELS 3 Yrotation Xrotation Zrotation
										End Site
										{
											OFFSET -1.59688 -0.42788 0.00000
										}
									}
								}
							}
						}
					}
					JOINT LeftShoulder
					{
						OFFSET 0.72014 -1.20022 3.88874
						CHANNELS 3 Xrotation Yrotation Zrotation
						JOINT LeftArm
						{
							OFFSET 3.57668 0.00000 0.00000
							CHANNELS 3 Xrotation Yrotation Zrotation
							JOINT LeftForeArm
							{
								OFFSET 5.92485 0.00000 0.00000
								CHANNELS 3 Xrotation Yrotation Zrotation
								JOINT LeftHand
								{
									OFFSET 6.63013 0.00000 0.00000
									CHANNELS 3 Xrotation Yrotation Zrotation
									JOINT LeftHandEnd
									{
										OFFSET 1.65321 0.00000 0.00000
										CHANNELS 3 Xrotation Yrotation Zrotation
										End Site
										{
											OFFSET 1.65321 0.00000 0.00000
										}
									}
									JOINT LeftHandThumb1
									{
										OFFSET 0.66129 -1.10214 -0.44086
										CHANNELS 3 Yrotation Xrotation Zrotation
										End Site
										{
											OFFSET 1.59688 -0.42788 0.00000
										}
									}
								}
							}
						}
					}
				}
			}
		}
	}
	JOINT RightUpLeg
	{
		OFFSET -2.13640 0.00000 -0.62412
		CHANNELS 3 Xrotation Yrotation Zrotation
		JOINT RightLeg
		{
			OFFSET 0.00000 0.00000 -11.49360
			CHANNELS 3 Xrotation Yrotation Zrotation
			JOINT RightFoot
			{
				OFFSET 0.00000 0.00000 -8.79036
				CHANNELS 3 Xrotation Yrotation Zrotation
				JOINT RightToeBase
				{
					OFFSET 0.00000 -3.94625 -1.43632
					CHANNELS 3 Xrotation Yrotation Zrotation
					End Site
					{
						OFFSET 0.00000 -1.72833 -0.00000
					}
				}
			}
		}
	}
	JOINT LeftUpLeg
	{
		OFFSET 2.13640 0.00000 -0.62412
		CHANNELS 3 Xrotation Yrotation Zrotation
		JOINT LeftLeg
		{
			OFFSET 0.00000 0.00000 -11.49360
			CHANNELS 3 Xrotation Yrotation Zrotation
			JOINT LeftFoot
			{
				OFFSET 0.00000 0.00000 -8.79036
				CHANNELS 3 Xrotation Yrotation Zrotation
				JOINT LeftToeBase
				{
					OFFSET 0.00000 -3.94625 -1.43632
					CHANNELS 3 Xrotation Yrotation Zrotation
					End Site
					{
						OFFSET 0.00000 -1.72833 -0.00000
					}
				}
			}
		}
	}
}
MOTION
Frames: 6
Frame Time: 0.008342
 0.3224 -103.5185 23.2313 -4.6684 -2.8410 -177.0620 -7.1098 -5.0320 -0.3865 -1.3428 -1.8787 -0.9205 2.6797 -2.1519 -3.2762 0.7165 4.7292 -2.0907 -0.6792 10.9249 -2.9275 10.7671 4.4138 -14.3822 -7.3736 -4.9103 -0.6332 0.7896 -9.9106 -7.9183 0.0000 0.0000 9.0825 0.2240 -10.4083 -3.6165 0.0000 -0.0000 -0.0000 0.0000 -0.0000 0.0000 -14.7316 9.0286 6.2267 -9.2487 14.9920 1.4000 -0.0000 -0.0000 -7.2638 -8.6652 -17.3215 14.8821 -0.0000 0.0000 -0.0000 0.0000 -0.0000 -0.0000 -3.4420 -0.1436 -63.8014 1.2421 0.0000 0.0000 -3.4467 -4.9256 51.0819 2.8325 0.0000 0.0000 0.6588 -1.0251 26.2538 -4.1583 0.0000 -0.0000 -1.7275 -4.5028 5.5451 -4.6392 0.0000 -0.0000
 0.3219 -103.5165 23.2315 -4.6764 -2.8383 -177.0858 -7.0872 -5.0552 -0.3913 -1.3433 -1.8773 -0.9170 2.6335 -2.1976 -3.2504 0.7181 4.7659 -2.0958 -0.6387 10.9655 -2.9243 10.8110 4.4341 -14.3827 -7.3825 -4.8416 -0.6190 0.7987 -9.8381 -7.9125 0.0000 0.0000 9.1155 0.2113 -10.3436 -3.6382 -0.0000 -0.0000 0.0000 0.0000 0.0000 0.0000 -14.6998 8.9852 6.2493 -9.1713 14.9984 1.3745 -0.0000 -0.0000 -7.3163 -8.7260 -17.2980 14.9217 0.0000 -0.0000 -0.0000 0.0000 -0.0000 0.0000 -3.4470 -0.1413 -63.7836 1.2415 0.0000 0.0000 -3.4433 -4.9251 51.0880 2.8315 0.0000 0.0000 0.6550 -1.0230 26.2526 -4.1481 0.0000 -0.0000 -1.7368 -4.5050 5.5700 -4.6320 0.0000 -0.0000
 0.3218 -103.5142 23.2316 -4.7136 -2.8357 -177.1105 -7.0940 -5.0799 -0.3956 -1.3424 -1.8791 -0.9206 2.5844 -2.2498 -3.2199 0.7208 4.8082 -2.1025 -0.5911 11.0142 -2.9196 10.8651 4.4618 -14.3827 -7.3998 -4.7559 -0.5996 0.7997 -9.7430 -7.9101 0.0000 0.0000 9.1599 0.2018 -10.2605 -3.6662 0.0000 0.0000 0.0000 -0.0000 -0.0000 0.0000 -14.6605 8.9294 6.2799 -9.0812 15.0035 1.3427 -0.0000 -0.0000 -7.3818 -8.8071 -17.2709 14.9727 0.0000 0.0000 -0.0000 0.0000 -0.0000 -0.0000 -3.4818 -0.1373 -63.7624 1.2446 0.0000 0.0000 -3.4444 -4.9219 51.0906 2.8314 0.0000 0.0000 0.6189 -1.0218 26.2483 -4.1296 0.0000 -0.0000 -1.7505 -4.5089 5.5969 -4.6221 0.0000 -0.0000
 0.3221 -103.5112 23.2317 -4.7631 -2.8359 -177.1343 -7.1135 -5.1117 -0.4045 -1.3448 -1.8977 -0.9289 2.5411 -2.2727 -3.1885 0.7219 4.8369 -2.1050 -0.5373 11.0692 -2.9152 10.9270 4.4967 -14.3817 -7.4254 -4.6539 -0.5774 0.7897 -9.6264 -7.9100 0.0000 0.0000 9.2141 0.1964 -10.1632 -3.7002 0.0000 -0.0000 0.0000 0.0000 -0.0000 -0.0000 -14.6160 8.8574 6.3146 -8.9859 15.0114 1.3092 -0.0000 -0.0000 -7.4570 -8.9032 -17.2439 15.0332 0.0000 -0.0000 0.0000 0.0000 -0.0000 0.0000 -3.5271 -0.1380 -63.7388 1.2453 0.0000 0.0000 -3.4449 -4.9175 51.0898 2.8319 0.0000 0.0000 0.5695 -1.0254 26.2411 -4.1062 0.0000 -0.0000 -1.7685 -4.5132 5.6253 -4.6096 0.0000 -0.0000
 0.3228 -103.5073 23.2318 -4.8085 -2.8349 -177.1560 -7.1277 -5.1503 -0.4166 -1.3476 -1.9083 -0.9259 2.4953 -2.2992 -3.1724 0.7247 4.8635 -2.1049 -0.4798 11.1268 -2.9101 10.9949 4.5407 -14.3799 -7.4592 -4.5346 -0.5519 0.7693 -9.4942 -7.9100 0.0000 0.0000 9.2745 0.1951 -10.0547 -3.7399 -0.0000 -0.0000 -0.0000 -0.0000 0.0000 0.0000 -14.5669 8.7698 6.3512 -8.8942 15.0221 1.2803 -0.0000 -0.0000 -7.5411 -9.0122 -17.2222 15.1044 -0.0000 0.0000 -0.0000 0.0000 -0.0000 0.0000 -3.5654 -0.1386 -63.7179 1.2469 0.0000 0.0000 -3.4493 -4.9137 51.0904 2.8330 0.0000 0.0000 0.5276 -1.0283 26.2406 -4.0861 0.0000 -0.0000 -1.7865 -4.5147 5.6443 -4.5954 0.0000 -0.0000
 0.3241 -103.5026 23.2318 -4.8538 -2.8355 -177.1746 -7.1441 -5.1920 -0.4297 -1.3533 -1.9232 -0.9288 2.4572 -2.3171 -3.1548 0.7284 4.8845 -2.1056 -0.4214 11.1854 -2.9039 11.0645 4.5908 -14.3770 -7.5014 -4.4020 -0.5227 0.7327 -9.3498 -7.9141 0.0000 0.0000 9.3420 0.2008 -9.9398 -3.7835 0.0000 -0.0000 -0.0000 0.0000 -0.0000 -0.0000 -14.5181 8.6663 6.3898 -8.8154 15.0377 1.2559 -0.0000 -0.0000 -7.6251 -9.1248 -17.2054 15.1794 -0.0000 0.0000 -0.0000 0.0000 -0.0000 0.0000 -3.6010 -0.1433 -63.6973 1.2466 0.0000 0.0000 -3.4548 -4.9103 51.0886 2.8336 0.0000 0.0000 0.4878 -1.0344 26.2399 -4.0669 0.0000 -0.0000 -1.8055 -4.5142 5.6602 -4.5799 0.0000 -0.0000
